<svg width="18" height="19" viewBox="0 0 18 19" fill="none" xmlns="http://www.w3.org/2000/svg">
<path d="M8.97229 0.0239868L0.0596924 3.16265L1.46812 14.8474L8.98172 18.9797L16.5341 14.7914L17.942 3.10706L8.97229 0.0239868Z" fill="#B3B3B3"/>
<path d="M17.0531 3.78238L8.95154 1.01782V17.9924L15.741 14.2324L17.0531 3.78238Z" fill="#A6120D"/>
<path d="M1.05981 3.83217L2.26673 14.2823L8.95134 17.9924V1.01752L1.05988 3.8321L1.05981 3.83217Z" fill="#DD1B16"/>
<path d="M11.1816 10.0542L8.9515 11.0978H6.60102L5.49613 13.8632L3.44104 13.9012L8.9515 1.63422L11.1816 10.0543V10.0542ZM10.966 9.52882L8.96634 5.56738L7.32602 9.46064H8.95143L10.966 9.52889V9.52882Z" fill="#F2F2F2"/>
<path d="M8.95142 1.63416L8.96618 5.56738L10.8274 9.46368H8.95564L8.95142 11.0952L11.5396 11.0977L12.7493 13.9017L14.7157 13.9381L8.95142 1.63416Z" fill="#B3B3B3"/>
</svg>
