<svg width="20" height="16" viewBox="0 0 20 16" fill="none" xmlns="http://www.w3.org/2000/svg">
<path d="M2.20625 2.09098C2.16875 1.00314 3.01289 0 4.15391 0H15.8477C16.9887 0 17.8328 1.00314 17.7953 2.09098C17.759 3.13608 17.8059 4.48941 18.1453 5.59333C18.4859 6.70039 19.0598 7.40039 20 7.4902V8.5098C19.0598 8.59961 18.4859 9.29961 18.1453 10.4067C17.8059 11.5106 17.759 12.8639 17.7953 13.909C17.8328 14.9969 16.9887 16 15.8477 16H4.15391C3.01289 16 2.16875 14.9969 2.20625 13.909C2.24258 12.8639 2.19531 11.5106 1.85625 10.4067C1.51562 9.29961 0.940234 8.59961 0 8.5098V7.4902C0.940234 7.40039 1.51562 6.70039 1.85625 5.59333C2.19531 4.48941 2.24258 3.13608 2.20625 2.09098Z" fill="url(#paint0_linear_46_13)"/>
<path fill-rule="evenodd" clip-rule="evenodd" d="M13.3945 9.84706C13.3945 11.3451 12.2813 12.2533 10.4336 12.2533H6.94922V3.74353H10.4156C11.9563 3.74353 12.9672 4.58079 12.9672 5.86628C12.9672 6.76863 12.2875 7.57686 11.4207 7.71804V7.76549C12.6004 7.8953 13.3945 8.7149 13.3945 9.84706ZM8.29727 11.1741V8.37294H10.0785C11.3543 8.37294 12.0164 8.84471 12.0164 9.76471C12.0164 10.6847 11.3727 11.1741 10.157 11.1741H8.29727ZM8.29727 4.82275H10.0906C11.0656 4.82275 11.6191 5.25922 11.6191 6.04941C11.6191 6.89255 10.9754 7.36431 9.80781 7.36431H8.29727V4.82275Z" fill="white"/>
<defs>
<linearGradient id="paint0_linear_46_13" x1="2.96875" y1="0.392156" x2="20.4825" y2="14.247" gradientUnits="userSpaceOnUse">
<stop stop-color="#9013FE"/>
<stop offset="1" stop-color="#6610F2"/>
</linearGradient>
</defs>
</svg>
