<svg width="21" height="21" viewBox="0 0 21 21" fill="none" xmlns="http://www.w3.org/2000/svg">
<path d="M3 21C4.65527 21 6 19.6567 6 18V15H3C1.34473 15 0 16.3433 0 18C0 19.6567 1.34473 21 3 21Z" fill="#0ACF83"/>
<path d="M0 12C0 10.3447 1.34473 9 3 9H6V15H3C1.34473 15 0 13.6567 0 12Z" fill="#A259FF"/>
<path d="M0 6C0 4.34473 1.34473 3 3 3H6V9H3C1.34473 9 0 7.65674 0 6Z" fill="#F24E1E"/>
<path d="M6 3H9C10.6553 3 12 4.34473 12 6C12 7.65674 10.6567 9 9 9H6V3Z" fill="#FF7262"/>
<path d="M12 12C12 13.6567 10.6567 15 9 15C7.34326 15 6 13.6567 6 12C6 10.3447 7.34326 9 9 9C10.6567 9 12 10.3447 12 12Z" fill="#1ABCFE"/>
</svg>
