<svg width="173" height="68" viewBox="0 0 173 68" fill="none" xmlns="http://www.w3.org/2000/svg">
<g clip-path="url(#clip0_23_128)">
<mask id="mask0_23_128" style="mask-type:luminance" maskUnits="userSpaceOnUse" x="0" y="0" width="173" height="68">
<path d="M172.089 0H0V68H172.089V0Z" fill="white"/>
</mask>
<g mask="url(#mask0_23_128)">
<path d="M0 8.65295C0 8.14643 0.425085 7.68213 0.977696 7.68213H6.58882C7.09892 7.68213 7.56651 8.14643 7.56651 8.65295V36.5959H19.894C20.4466 36.5959 20.8716 37.0601 20.8716 37.5667V42.6319C20.8716 43.1383 20.4466 43.6026 19.894 43.6026H0.977696C0.425085 43.6026 0 43.1383 0 42.6319V8.65295Z" fill="white"/>
<path d="M137.727 35.0763L153.796 0.548728C153.966 0.253259 154.221 0 154.688 0H155.198C155.708 0 155.921 0.253259 156.091 0.548728L171.989 35.0763C172.286 35.7517 171.904 36.4271 171.097 36.4271H165.74C164.975 36.4271 164.593 36.1316 164.253 35.4141L154.858 13.7182H154.731L145.464 35.4141C145.251 35.9205 144.784 36.4271 143.976 36.4271H138.578C137.812 36.4271 137.387 35.7517 137.727 35.0763Z" fill="white"/>
<path d="M154.816 24.1018C153.243 24.1018 151.968 25.2415 151.756 26.7609L148.907 27.3097L147.972 29.5469L152.138 28.7448C152.266 28.956 152.436 29.167 152.606 29.3358L136.92 59.8956C136.623 59.8113 136.325 59.8113 136.027 59.8113C133.774 59.8113 131.904 61.6262 131.904 63.9056C131.904 66.185 133.732 68.0001 136.027 68.0001C138.323 68.0001 140.151 66.185 140.151 63.9056C140.151 62.6816 139.598 61.5841 138.748 60.8244L154.434 30.2645C154.561 30.2645 154.731 30.3066 154.859 30.3066C156.559 30.3066 157.962 28.9137 157.962 27.2254C157.962 25.5369 156.559 24.1018 154.816 24.1018ZM135.985 65.9738C134.837 65.9738 133.902 65.0453 133.902 63.9056C133.902 62.7659 134.837 61.8374 135.985 61.8374C137.133 61.8374 138.068 62.7659 138.068 63.9056C138.068 65.0453 137.133 65.9738 135.985 65.9738Z" fill="#B2D235"/>
<path d="M121.234 32.5438L121.617 34.4855L139.556 31.1086L140.618 28.8716L121.234 32.5438Z" fill="#B2D235"/>
<path d="M57.344 17.5592L53.7732 16.0819C53.7732 15.9975 53.7732 15.9553 53.7732 15.8709C53.7732 14.1825 52.3704 12.7896 50.6701 12.7896C49.0121 12.7896 47.6945 14.0558 47.5669 15.6598L17.641 23.764C17.0884 22.9621 16.1531 22.4134 15.0904 22.4134C13.3901 22.4134 11.9873 23.8064 11.9873 25.4946C11.9873 27.1831 13.3901 28.5761 15.0904 28.5761C16.7482 28.5761 18.066 27.3097 18.1935 25.7058L48.1621 17.6437C48.7146 18.4456 49.6499 18.9943 50.7126 18.9943C51.6477 18.9943 52.4553 18.5722 53.0079 17.9392L57.344 19.7541V17.5592Z" fill="#B2D235"/>
<path d="M114.093 33.8946L104.783 35.6673C104.231 34.7388 103.253 34.1055 102.105 34.1055C101.17 34.1055 100.362 34.5276 99.8099 35.1609L65.0804 20.7673V22.92L99.0448 36.9758C99.0448 37.0603 99.0448 37.1025 99.0448 37.187C99.0448 38.8752 100.448 40.2682 102.148 40.2682C103.721 40.2682 104.996 39.1285 105.208 37.6091L114.433 35.8783L114.093 33.8946Z" fill="#B2D235"/>
<path d="M44.0387 16.6308V1.98401C44.0387 1.47749 43.6137 1.01318 43.0611 1.01318H37.2799C36.7699 1.01318 36.3022 1.47749 36.3022 1.98401V18.7412L44.0387 16.6308Z" fill="white"/>
<path d="M64.103 1.01318H58.3219C57.7692 1.01318 57.3441 1.47749 57.3441 1.98401V17.5594V19.7121V23.0045C57.3441 27.3099 54.241 29.9269 50.6278 29.9269C46.9721 29.9269 43.9965 27.3521 43.9965 22.9623V18.6991L36.26 20.7674V23.2999C36.26 31.1087 42.5087 37.398 50.6278 37.398C58.7895 37.398 65.0382 31.0666 65.0382 23.2999V1.98401C65.0808 1.43528 64.6132 1.01318 64.103 1.01318Z" fill="white"/>
<path d="M122.297 38.5374L116.218 4.052C116.176 3.62991 115.836 3.29224 115.283 3.29224H114.475C114.008 3.29224 113.753 3.50327 113.583 3.79875L102.233 22.4554C102.19 22.4554 102.19 22.4554 102.063 22.4554L90.7132 3.79875C90.5431 3.50327 90.2456 3.29224 89.8206 3.29224H89.0129C88.4603 3.29224 88.1201 3.67212 88.0777 4.052L83.7418 28.4493L90.4581 31.2351L92.3286 18.2766C92.371 18.2766 92.4985 18.2766 92.4985 18.2766L100.788 31.4462C100.958 31.7417 101.213 31.995 101.68 31.995H102.616C103.083 31.995 103.381 31.7417 103.508 31.4462L111.712 18.2766C111.712 18.2766 111.797 18.2766 111.882 18.2766L114.178 33.852L114.475 35.8359L114.943 38.9174C115.028 39.2971 115.453 39.6771 115.921 39.6771H121.489C122.042 39.7192 122.467 39.255 122.297 38.5374Z" fill="white"/>
<path d="M83.3591 30.4756L81.9139 38.5377C81.8287 39.2552 82.2113 39.7195 82.8915 39.7195H88.3751C88.8427 39.7195 89.2677 39.2974 89.3103 38.9596L90.118 33.3035L83.3591 30.4756Z" fill="white"/>
</g>
</g>
<defs>
<clipPath id="clip0_23_128">
<rect width="173" height="68" fill="white"/>
</clipPath>
</defs>
</svg>
