<svg width="49" height="49" viewBox="0 0 49 49" fill="none" xmlns="http://www.w3.org/2000/svg">
<path d="M22.8954 0.0131861C22.79 0.0227643 22.4547 0.0562882 22.153 0.0802339C15.1934 0.70761 8.67439 4.46229 4.54555 10.2332C2.24643 13.4419 0.775953 17.0816 0.220332 20.9369C0.0239492 22.2826 0 22.6801 0 24.5048C0 26.3295 0.0239492 26.727 0.220332 28.0727C1.55191 37.2726 8.09961 45.0023 16.98 47.8662C18.5702 48.3786 20.2466 48.7282 22.153 48.9389C22.8954 49.0204 26.1046 49.0204 26.847 48.9389C30.1376 48.575 32.9253 47.7608 35.6747 46.3576C36.0962 46.1421 36.1776 46.0846 36.1201 46.0367C36.0818 46.008 34.2856 43.5991 32.1302 40.6873L28.2121 35.3953L23.3025 28.1302C20.6011 24.136 18.3786 20.8698 18.3594 20.8698C18.3403 20.8651 18.3211 24.0929 18.3115 28.0344C18.2972 34.9355 18.2924 35.2133 18.2062 35.3761C18.0816 35.6108 17.9858 35.7066 17.7847 35.8119C17.6314 35.8886 17.4973 35.9029 16.774 35.9029H15.9454L15.725 35.764C15.5813 35.673 15.476 35.5533 15.4041 35.4144L15.3035 35.1989L15.3131 25.5967L15.3275 15.9897L15.476 15.8029C15.5526 15.7024 15.7154 15.5731 15.8304 15.5108C16.0268 15.415 16.1034 15.4055 16.9321 15.4055C17.9092 15.4055 18.072 15.4438 18.3259 15.7215C18.3978 15.7982 21.0561 19.8019 24.2366 24.6245C27.417 29.4472 31.7662 36.0322 33.9024 39.2649L37.7822 45.1412L37.9786 45.0119C39.7173 43.8816 41.5566 42.2725 43.0127 40.5963C46.1117 37.0379 48.1091 32.699 48.7797 28.0727C48.9761 26.727 49 26.3295 49 24.5048C49 22.6801 48.9761 22.2826 48.7797 20.9369C47.4481 11.737 40.9004 4.00732 32.02 1.14342C30.4538 0.635773 28.7869 0.286166 26.9189 0.0754448C26.459 0.0275535 23.293 -0.025127 22.8954 0.0131861ZM32.9253 14.8308C33.1552 14.9457 33.342 15.166 33.4091 15.3959C33.4474 15.5204 33.457 18.1831 33.4474 24.1839L33.433 32.7948L31.9147 30.4673L30.3915 28.1397V21.8804C30.3915 17.8335 30.4107 15.5587 30.4394 15.4486C30.516 15.1804 30.6837 14.9696 30.9136 14.8451C31.11 14.7446 31.1818 14.735 31.9338 14.735C32.6427 14.735 32.7673 14.7445 32.9253 14.8308Z" fill="black"/>
</svg>
