<svg width="102" height="99" viewBox="0 0 102 99" fill="none" xmlns="http://www.w3.org/2000/svg">
<path d="M33.2023 14.3174H15.4045V31.9095H33.2023V14.3174Z" fill="#1E88E5"/>
<path opacity="0.8" d="M51 14.3174H33.2023V31.9095H51V14.3174Z" fill="#1E88E5"/>
<path opacity="0.75" d="M68.7977 14.3174H51V31.9095H68.7977V14.3174Z" fill="#1E88E5"/>
<path opacity="0.6" d="M68.7977 14.3174H51V31.9095H68.7977V14.3174Z" fill="#1E88E5"/>
<path opacity="0.5" d="M86.5955 14.3174H68.7977V31.9095H86.5955V14.3174Z" fill="#1E88E5"/>
<path opacity="0.75" d="M68.7977 67.0923H51V84.6844H68.7977V67.0923Z" fill="#1E88E5"/>
<path opacity="0.6" d="M86.5955 67.0923H68.7977V84.6844H86.5955V67.0923Z" fill="#1E88E5"/>
<path opacity="0.9" d="M33.2023 31.908H15.4045V49.5001H33.2023V31.908Z" fill="#1E88E5"/>
<path opacity="0.6" d="M68.7977 31.908H51V49.5001H68.7977V31.908Z" fill="#1E88E5"/>
<path d="M33.2023 49.5H15.4045V67.0922H33.2023V49.5Z" fill="#1E88E5"/>
<path opacity="0.8" d="M51 49.5H33.2023V67.0922H51V49.5Z" fill="#1E88E5"/>
<path d="M33.2023 67.0923H15.4045V84.6844H33.2023V67.0923Z" fill="#1E88E5"/>
</svg>
