<svg width="54" height="48" viewBox="0 0 54 48" fill="none" xmlns="http://www.w3.org/2000/svg">
<path fill-rule="evenodd" clip-rule="evenodd" d="M54 24.0066C54 20.4361 49.522 17.0542 42.6533 14.9531C44.2397 7.96564 43.5322 2.40811 40.4297 0.62725C39.7134 0.210546 38.8784 0.0131591 37.9644 0.0131591V2.46514C38.4697 2.46514 38.8784 2.56602 39.2212 2.75025C40.7197 3.60559 41.3657 6.86905 40.8604 11.0668C40.7373 12.0976 40.5396 13.1854 40.2979 14.2952C38.1401 13.7688 35.7847 13.3609 33.3105 13.0977C31.8252 11.0668 30.2827 9.22014 28.7314 7.60596C32.3174 4.27232 35.6836 2.45198 37.9731 2.45198V0C34.9453 0 30.9858 2.15371 26.978 5.89089C22.9702 2.17564 19.0107 0.0438637 15.9829 0.0438637V2.49584C18.2593 2.49584 21.6387 4.30741 25.229 7.61473C23.6865 9.22891 22.1484 11.0624 20.6851 13.0977C18.1978 13.3609 15.8423 13.7688 13.6846 14.3039C13.4297 13.2073 13.2451 12.1415 13.1133 11.1194C12.5947 6.92169 13.2363 3.65823 14.7217 2.78973C15.0513 2.59234 15.4819 2.50461 15.9873 2.50461V0.0570228C15.0645 0.0570228 14.2251 0.254409 13.5 0.671114C10.4062 2.45198 9.71191 8.00073 11.3115 14.9663C4.45605 17.0717 0 20.4449 0 24.0066C0 27.5771 4.47803 30.959 11.3467 33.06C9.76025 40.0475 10.4678 45.605 13.5703 47.3859C14.2866 47.8026 15.1216 48 16.0488 48C19.0767 48 23.0361 45.8463 27.0439 42.1091C31.0518 45.8244 35.0112 47.9561 38.0391 47.9561C38.9619 47.9561 39.8013 47.7588 40.5264 47.342C43.6201 45.5612 44.3145 40.0124 42.7148 33.0469C49.5439 30.9502 54 27.5639 54 24.0066ZM32.0186 24.0066C32.0186 21.2344 29.7686 18.9842 26.9868 18.9842C24.2095 18.9842 21.9551 21.23 21.9551 24.0066C21.9551 26.7831 24.2051 29.029 26.9868 29.029C29.7686 29.0246 32.0186 26.7788 32.0186 24.0066ZM39.6694 16.677C39.2607 18.0938 38.7554 19.5544 38.1841 21.0151C37.7314 20.1378 37.2612 19.2561 36.7427 18.3789C36.2373 17.5016 35.6968 16.6419 35.1562 15.8085C36.7207 16.0409 38.228 16.3261 39.6694 16.677ZM34.6289 28.3798C33.772 29.8624 32.8887 31.2704 31.9746 32.5775C30.3354 32.7223 28.6743 32.7969 27 32.7969C25.3389 32.7969 23.6777 32.7179 22.0474 32.5863C21.1333 31.2792 20.2412 29.8843 19.3843 28.4105C18.5493 26.9718 17.7891 25.5111 17.0947 24.0373C17.7759 22.5635 18.5493 21.094 19.3711 19.6553C20.228 18.1727 21.1113 16.7647 22.0254 15.4576C23.6646 15.3128 25.3257 15.2382 27 15.2382C28.6611 15.2382 30.3223 15.3172 31.9526 15.4488C32.8667 16.7559 33.7588 18.1508 34.6157 19.6246C35.4507 21.0633 36.2109 22.524 36.9053 23.9978C36.2109 25.4672 35.4551 26.9367 34.6289 28.3798ZM38.1841 26.9498C38.7773 28.4236 39.2827 29.8931 39.7046 31.323C38.2632 31.6739 36.7427 31.9722 35.1694 32.2003C35.71 31.3537 36.2461 30.4852 36.7559 29.5948C37.2568 28.7175 37.7314 27.8271 38.1841 26.9498ZM27.022 38.6702C25.998 37.6175 24.9741 36.4419 23.9634 35.1567C24.9521 35.2006 25.9673 35.2357 26.9912 35.2357C28.0239 35.2357 29.0478 35.2137 30.0498 35.1567C29.0566 36.4419 28.0327 37.6175 27.022 38.6702ZM18.835 32.2003C17.2705 31.9678 15.7632 31.6827 14.3218 31.3318C14.7305 29.915 15.2358 28.4544 15.8071 26.9937C16.2598 27.871 16.73 28.7526 17.2485 29.6299C17.7671 30.5116 18.2944 31.3669 18.835 32.2003ZM26.9648 9.33857C27.9888 10.3913 29.0127 11.5668 30.0234 12.8521C29.0347 12.8082 28.0195 12.7731 26.9956 12.7731C25.9629 12.7731 24.939 12.795 23.937 12.8521C24.9302 11.5668 25.9541 10.3913 26.9648 9.33857ZM18.8218 15.8085C18.2812 16.655 17.7451 17.5235 17.2354 18.414C16.73 19.2912 16.2554 20.1729 15.8027 21.0502C15.2095 19.5764 14.7041 18.1069 14.2822 16.677C15.728 16.3348 17.2485 16.0409 18.8218 15.8085ZM8.85938 29.5641C4.96143 27.9061 2.44336 25.7304 2.44336 24.0066C2.44336 22.2827 4.96582 20.0939 8.85938 18.4491C9.8042 18.0411 10.8413 17.6814 11.9092 17.3393C12.5376 19.493 13.3638 21.7344 14.3877 24.0285C13.377 26.3138 12.5596 28.5421 11.9443 30.687C10.8545 30.3449 9.81738 29.972 8.85938 29.5641ZM14.7832 45.2629C13.2847 44.4076 12.6387 41.1441 13.144 36.9464C13.2671 35.9156 13.4648 34.8277 13.7065 33.718C15.8643 34.2444 18.2197 34.6523 20.6938 34.9155C22.1792 36.9464 23.7217 38.793 25.2729 40.4072C21.6826 43.7365 18.3164 45.5612 16.0269 45.5612C15.5303 45.548 15.1128 45.4515 14.7832 45.2629ZM40.8911 36.8937C41.4097 41.0915 40.7681 44.3549 39.2827 45.2234C38.9531 45.4208 38.5225 45.5085 38.0171 45.5085C35.7407 45.5085 32.3613 43.697 28.771 40.3897C30.3135 38.7755 31.8516 36.942 33.3149 34.9067C35.8022 34.6435 38.1577 34.2356 40.3154 33.6961C40.5703 34.8058 40.7681 35.8717 40.8911 36.8937ZM45.1274 29.5641C44.1826 29.972 43.1455 30.3317 42.0776 30.6739C41.4492 28.5201 40.623 26.2787 39.5991 23.9846C40.6099 21.6994 41.4272 19.4711 42.0425 17.3261C43.1323 17.6683 44.165 18.0411 45.1362 18.4447C49.0342 20.1027 51.5522 22.2784 51.5522 24.0022C51.5435 25.7304 49.0254 27.9148 45.1274 29.5641Z" fill="#00D8FF"/>
</svg>
