<svg width="50" height="47" viewBox="0 0 50 47" fill="none" xmlns="http://www.w3.org/2000/svg">
<path fill-rule="evenodd" clip-rule="evenodd" d="M34.6446 32.8244C36.4898 32.6353 37.8896 31.0602 37.826 29.1701C37.7625 27.2802 36.1716 25.7681 34.2629 25.7681H34.1357C32.1631 25.8311 30.6361 27.4691 30.6998 29.4222C30.7634 30.3672 31.1452 31.1863 31.7177 31.7533C29.5544 35.9746 26.2459 39.0616 21.283 41.6447C17.9107 43.4089 14.4114 44.0389 10.9119 43.5979C8.04859 43.2198 5.8217 41.9599 4.42161 39.8806C2.38567 36.7935 2.19487 33.4543 3.91281 30.1152C5.12181 27.721 7.03039 25.957 8.23939 25.0749C7.98499 24.2558 7.60309 22.87 7.41229 21.8619C-1.8137 28.4773 -0.859109 37.4236 1.94032 41.6447C4.04001 44.795 8.30299 46.7481 13.0113 46.7481C14.2838 46.7481 15.5562 46.622 16.8288 46.3071C24.9731 44.7319 31.1453 39.9437 34.6446 32.8244ZM45.843 25.0121C41.0073 19.4048 33.8811 16.3177 25.7368 16.3177H24.7189C24.1462 15.1838 22.9372 14.4275 21.6012 14.4275H21.4738C19.5016 14.4905 17.9746 16.1285 18.0381 18.0817C18.1017 19.9717 19.6923 21.4838 21.6012 21.4838H21.7284C23.1282 21.4207 24.3371 20.5388 24.8461 19.3417H25.9913C30.827 19.3417 35.4081 20.7277 39.5441 23.4369C42.7252 25.516 45.0159 28.2251 46.2883 31.5012C47.37 34.1474 47.3064 36.7304 46.161 38.9357C44.3796 42.2747 41.389 44.1019 37.4442 44.1019C34.8992 44.1019 32.4813 43.3457 31.2088 42.7787C30.509 43.4087 29.2363 44.4166 28.3456 45.0469C31.0817 46.3068 33.8813 47 36.5535 47C42.6618 47 47.1793 43.6608 48.8972 40.3217C50.7424 36.6674 50.6149 30.3672 45.843 25.0121ZM13.5206 33.8952C13.5842 35.7853 15.1749 37.2973 17.0836 37.2973H17.211C19.1835 37.2345 20.7105 35.5963 20.6467 33.6432C20.5833 31.7531 18.9924 30.2411 17.0836 30.2411H16.9564C16.8291 30.2411 16.6381 30.2411 16.5111 30.304C13.9023 26.0198 12.8207 21.3579 13.2026 16.3176C13.4568 12.5374 14.7295 9.26128 16.9564 6.55208C18.8016 4.22101 22.3647 3.0869 24.7825 3.02407C31.5268 2.89797 34.3899 11.2142 34.5809 14.5536C35.4081 14.7425 36.8078 15.1836 37.7624 15.4986C36.9987 5.29231 30.6361 0 24.5281 0C18.8016 0 13.5206 4.09522 11.4207 10.1435C8.49394 18.2078 10.4028 25.957 13.9659 32.0684C13.6479 32.5094 13.457 33.2021 13.5206 33.8952Z" fill="#764ABC"/>
</svg>
