<svg width="23" height="18" viewBox="0 0 23 18" fill="none" xmlns="http://www.w3.org/2000/svg">
<path d="M19.7995 10.3361C18.9953 10.3408 18.299 10.5425 17.7149 10.8427C17.4993 10.3971 17.2837 10.0078 17.2478 9.717C17.2073 9.37928 17.1579 9.17284 17.2073 8.7695C17.2567 8.36607 17.4813 7.79382 17.4813 7.74691C17.4768 7.7047 17.4319 7.49831 16.9692 7.49362C16.5065 7.48893 16.1066 7.58743 16.0617 7.71408C16.0168 7.84072 15.9269 8.13154 15.8685 8.43174C15.7876 8.87265 14.943 10.4346 14.4623 11.2555C14.3051 10.9365 14.1703 10.6551 14.1433 10.4299C14.1029 10.0922 14.0534 9.88576 14.1029 9.48242C14.1523 9.07899 14.377 8.50678 14.377 8.45988C14.3725 8.41766 14.3275 8.21128 13.8649 8.20659C13.4021 8.2019 13.0023 8.3004 12.9573 8.42704C12.9124 8.55369 12.863 8.85389 12.7642 9.1447C12.6698 9.43552 11.5466 12.0435 11.2546 12.7236C11.1064 13.0707 10.9761 13.3475 10.8817 13.5351C10.7874 13.7227 10.8772 13.5491 10.8683 13.5679C10.7874 13.7274 10.7425 13.8165 10.7425 13.8165V13.8212C10.6796 13.9385 10.6122 14.051 10.5807 14.051C10.5582 14.051 10.5133 13.7368 10.5897 13.3053C10.7559 12.4 11.1602 10.9881 11.1558 10.9365C11.1558 10.9131 11.2321 10.6644 10.8952 10.5378C10.5672 10.4112 10.4504 10.6223 10.4234 10.6223C10.3965 10.6223 10.374 10.6973 10.374 10.6973C10.374 10.6973 10.7379 9.10727 9.67768 9.10727C9.01277 9.10727 8.09629 9.86245 7.64254 10.552C7.35501 10.7161 6.74402 11.0632 6.09709 11.4338C5.85 11.5745 5.59392 11.7246 5.35132 11.8606L5.30195 11.8043C4.01707 10.3736 1.6405 9.36047 1.73933 7.43734C1.77527 6.73844 2.00889 4.89505 6.30384 2.66234C9.82153 0.833016 12.6384 1.33491 13.128 2.45126C13.8244 4.04605 11.623 7.01049 7.96609 7.43734C6.57339 7.6015 5.84106 7.03864 5.65691 6.82756C5.46373 6.6071 5.43677 6.59772 5.36489 6.63994C5.24808 6.70561 5.31996 6.90261 5.36489 7.01987C5.47271 7.31538 5.92197 7.84072 6.68571 8.1034C7.35506 8.33323 8.9904 8.45988 10.9671 7.66248C13.182 6.76658 14.9116 4.28058 14.404 2.20266C13.8873 0.087216 10.5269 -0.606988 7.35061 0.570344C5.45919 1.27393 3.41057 2.37152 1.93701 3.81153C0.1849 5.51889 -0.0936404 7.01049 0.0231666 7.62965C0.432036 9.83891 3.34768 11.2789 4.51575 12.3437C4.45734 12.3765 4.40343 12.4093 4.35401 12.4375C3.76998 12.7376 1.54615 13.9525 0.989071 15.2377C0.36011 16.6918 1.08791 17.7378 1.57311 17.8785C3.07363 18.3148 4.61009 17.5314 5.44122 16.2415C6.26781 14.9516 6.16902 13.2771 5.78715 12.5125L5.77362 12.4844L6.23187 12.203C6.52842 12.02 6.82044 11.8512 7.07647 11.7057C6.93275 12.1138 6.82938 12.5969 6.77551 13.3005C6.71262 14.1261 7.03608 15.1955 7.46288 15.6176C7.65157 15.8005 7.8762 15.8053 8.01547 15.8053C8.50965 15.8053 8.73428 15.3784 8.98137 14.8671C9.28687 14.2433 9.55642 13.521 9.55642 13.521C9.55642 13.521 9.21948 15.4769 10.1405 15.4769C10.4774 15.4769 10.8143 15.0219 10.9671 14.7874V14.7921C10.9671 14.7921 10.9761 14.778 10.994 14.7452C11.0129 14.7161 11.0309 14.6864 11.048 14.6561V14.6467C11.1827 14.4028 11.4837 13.8447 11.933 12.9206C12.5125 11.7292 13.0696 10.2376 13.0696 10.2376C13.0696 10.2376 13.1235 10.6035 13.2898 11.2039C13.3885 11.5604 13.6042 11.9497 13.7704 12.3296C13.6356 12.5266 13.5548 12.6392 13.5548 12.6392L13.5593 12.6439C13.4515 12.794 13.3301 12.9535 13.2044 13.113C12.7462 13.6852 12.1981 14.3373 12.1262 14.5249C12.0408 14.7453 12.0588 14.9095 12.225 15.0408C12.3463 15.1347 12.562 15.1534 12.7911 15.1347C13.2044 15.1065 13.4919 14.9986 13.6357 14.9329C13.8603 14.8485 14.1164 14.7218 14.3635 14.5342C14.8127 14.1872 15.0868 13.6946 15.0598 13.038C15.0464 12.6768 14.934 12.3203 14.7948 11.9826C14.8352 11.9216 14.8757 11.8606 14.9161 11.795C15.6259 10.7114 16.174 9.52004 16.174 9.52004C16.174 9.52004 16.2279 9.88591 16.3941 10.4863C16.4794 10.7912 16.6502 11.1243 16.803 11.4526C16.1381 12.0202 15.7202 12.6768 15.5765 13.1084C15.3114 13.9058 15.5181 14.2669 15.9089 14.3514C16.0841 14.3889 16.3357 14.3045 16.5244 14.22C16.758 14.1403 17.041 14.0042 17.3016 13.8026C17.7509 13.4555 18.1822 12.9723 18.1597 12.3204C18.1462 12.0202 18.0699 11.7247 17.9665 11.4432C18.5326 11.1993 19.2648 11.0586 20.1948 11.1759C22.194 11.4198 22.5894 12.7237 22.5131 13.2679C22.4367 13.812 22.0189 14.1122 21.8796 14.206C21.7403 14.2951 21.6954 14.328 21.7089 14.3936C21.7268 14.4921 21.7897 14.4874 21.911 14.4687C22.0772 14.4405 22.9623 14.0231 22.9982 13.0193C23.0521 11.7293 21.8796 10.3221 19.7995 10.3361ZM4.38097 15.7631C3.72056 16.5183 2.7906 16.8044 2.39525 16.5605C1.96845 16.3025 2.13463 15.1908 2.94784 14.3888C3.44202 13.9009 4.08446 13.4506 4.50676 13.1739C4.60111 13.1129 4.74487 13.0238 4.91559 12.9159C4.94254 12.8972 4.96051 12.8878 4.96051 12.8878C4.99196 12.869 5.0279 12.8456 5.06384 12.8221C5.36484 13.9666 5.07732 14.9704 4.38097 15.7631ZM9.21049 12.3343C8.98137 12.9206 8.49617 14.4263 8.20415 14.3419C7.95253 14.2715 7.79982 13.1317 8.15469 12.0059C8.33439 11.4383 8.71626 10.7629 8.94089 10.5002C9.30484 10.0781 9.70014 9.93736 9.79902 10.1109C9.91583 10.3361 9.35425 11.9684 9.21049 12.3343ZM13.1954 14.3231C13.0966 14.3747 13.0067 14.4122 12.9663 14.3841C12.9348 14.3654 13.0067 14.295 13.0067 14.295C13.0067 14.295 13.5054 13.7368 13.703 13.4788C13.8153 13.3288 13.9501 13.1552 14.0939 12.9582V13.0145C14.0939 13.6899 13.474 14.1402 13.1954 14.3231ZM16.2683 13.5914C16.1964 13.5351 16.2054 13.3615 16.448 12.8174C16.5424 12.6017 16.758 12.2405 17.1309 11.8981C17.1758 12.0388 17.2028 12.1748 17.1983 12.3015C17.1938 13.1458 16.6188 13.46 16.2683 13.5914Z" fill="#CF649A"/>
</svg>
