<svg width="49" height="49" viewBox="0 0 49 49" fill="none" xmlns="http://www.w3.org/2000/svg">
<path fill-rule="evenodd" clip-rule="evenodd" d="M0 24.5V0H49V49H0V24.5Z" fill="#007ACC"/>
<path fill-rule="evenodd" clip-rule="evenodd" d="M10.7427 24.5837V26.5815H17.1109V44.7133H21.6329V26.5815H28.0011V24.6196C28.0011 23.519 28.0011 22.6218 27.9533 22.5979C27.9533 22.562 24.0693 22.55 19.352 22.55L10.7786 22.5859V24.5957L10.7427 24.5837ZM39.3699 22.5381C40.618 22.8331 41.575 23.3954 42.4324 24.2886C42.887 24.7791 43.5609 25.6365 43.6087 25.8558C43.6087 25.9275 41.4913 27.3631 40.2033 28.1606C40.1554 28.1965 39.96 27.9892 39.7607 27.6701C39.1226 26.765 38.4727 26.3702 37.4558 26.2984C35.9844 26.1987 35.0074 26.9723 35.0074 28.2563C35.0074 28.6471 35.0792 28.8704 35.2267 29.1854C35.5577 29.8594 36.1718 30.2621 38.0699 31.0955C41.575 32.6028 43.0943 33.5958 44.0115 35.0154C45.0522 36.6064 45.2835 39.1067 44.5857 40.9809C43.8001 43.0265 41.8901 44.4102 39.1585 44.8648C38.3012 45.0124 36.3393 44.9884 35.4221 44.8289C33.4642 44.4621 31.586 43.4811 30.4376 42.221C29.983 41.7305 29.1137 40.4186 29.1655 40.3349L29.6321 40.0398L31.4704 38.9751L32.8541 38.1656L33.1731 38.5963C33.5758 39.2343 34.485 40.0916 35.0114 40.3867C36.6025 41.2082 38.7358 41.0965 39.7886 40.1435C40.2432 39.7287 40.4386 39.2861 40.4386 38.672C40.4386 38.1098 40.3508 37.8506 40.0717 37.4239C39.6809 36.8856 38.8953 36.4429 36.6902 35.466C34.1541 34.3893 33.0774 33.7034 32.0725 32.6467C31.4983 32.0087 30.9719 31.0158 30.7247 30.1983C30.5413 29.4885 30.4814 27.7499 30.6529 27.0481C31.1793 24.5997 33.0295 22.885 35.6773 22.3945C36.5347 22.223 38.5564 22.2948 39.4018 22.5181L39.3699 22.5381Z" fill="white"/>
</svg>
